HIERARCHY
ROOT Hips
{
  OFFSET 54.2184 94.142 9.79341
  CHANNELS 6 Xposition Yposition Zposition Zrotation Xrotation Yrotation
  JOINT spine
  {
    OFFSET 0 7.80059 0.448573
    CHANNELS 3 Zrotation Xrotation Yrotation
    JOINT spine1
    {
      OFFSET 0 10.1364 0
      CHANNELS 3 Zrotation Xrotation Yrotation
      JOINT spine2
      {
        OFFSET 0 9.71251 0
        CHANNELS 3 Zrotation Xrotation Yrotation
        JOINT Neck
        {
          OFFSET 0 24.9361 1.18887
          CHANNELS 3 Zrotation Xrotation Yrotation
          JOINT Head
          {
            OFFSET 0 7.53384 0
            CHANNELS 3 Zrotation Xrotation Yrotation
            End Site
            {
              OFFSET 0 18.2361 -6.01402
            }
          }
        }
        JOINT RightShoulder
        {
          OFFSET -4.08965 10.4888 -0.569457
          CHANNELS 3 Zrotation Xrotation Yrotation
          JOINT RightArm
          {
            OFFSET 0 13.757 0
            CHANNELS 3 Zrotation Xrotation Yrotation
            JOINT RightArmRoll
            {
              OFFSET 0 6.94478 0
              CHANNELS 3 Zrotation Xrotation Yrotation
              JOINT RightForeArm
              {
                OFFSET 0 20.2277 0
                CHANNELS 3 Zrotation Xrotation Yrotation
                JOINT RightForeArmRoll
                {
                  OFFSET 0 7.79312 0
                  CHANNELS 3 Zrotation Xrotation Yrotation
                  JOINT RightHand
                  {
                    OFFSET 0 15.6391 0
                    CHANNELS 3 Zrotation Xrotation Yrotation
                    End Site
                    {
                      OFFSET 0 0 0
                    }
                  }
                }
              }
            }
          }
        }
        JOINT LeftShoulder
        {
          OFFSET 4.08965 10.4888 -0.569457
          CHANNELS 3 Zrotation Xrotation Yrotation
          JOINT LeftArm
          {
            OFFSET 0 13.757 0
            CHANNELS 3 Zrotation Xrotation Yrotation
            JOINT LeftArmRoll
            {
              OFFSET 0 6.94478 0
              CHANNELS 3 Zrotation Xrotation Yrotation
              JOINT LeftForeArm
              {
                OFFSET 0 20.2277 0
                CHANNELS 3 Zrotation Xrotation Yrotation
                JOINT LeftForeArmRoll
                {
                  OFFSET 0 7.79312 0
                  CHANNELS 3 Zrotation Xrotation Yrotation
                  JOINT LeftHand
                  {
                    OFFSET 0 15.6391 0
                    CHANNELS 3 Zrotation Xrotation Yrotation
                    End Site
                    {
                      OFFSET 0 0 0
                    }
                  }
                }
              }
            }
          }
        }
      }
    }
  }
  JOINT RightUpLeg
  {
    OFFSET -6.91416 -1.26788 -1.06358
    CHANNELS 3 Zrotation Xrotation Yrotation
    JOINT RightUpLegRoll
    {
      OFFSET 0 18.3378 0
      CHANNELS 3 Zrotation Xrotation Yrotation
      JOINT RightLeg
      {
        OFFSET 0 -22.7085 0
        CHANNELS 3 Zrotation Xrotation Yrotation
        JOINT RightLegRoll
        {
          OFFSET 0 22.7828 0
          CHANNELS 3 Zrotation Xrotation Yrotation
          JOINT RightFoot
          {
            OFFSET 0 18.9629 0
            CHANNELS 3 Zrotation Xrotation Yrotation
            JOINT RightToeBase
            {
              OFFSET 0 15.852 0
              CHANNELS 3 Zrotation Xrotation Yrotation
              End Site
              {
                OFFSET 0.00671906 7.67701 -0.884892
              }
            }
          }
        }
      }
    }
  }
  JOINT LeftUpLeg
  {
    OFFSET 6.91416 -1.26788 -1.06358
    CHANNELS 3 Zrotation Xrotation Yrotation
    JOINT LeftUpLegRoll
    {
      OFFSET 0 18.3379 0
      CHANNELS 3 Zrotation Xrotation Yrotation
      JOINT LeftLeg
      {
        OFFSET 0 22.7084 0
        CHANNELS 3 Zrotation Xrotation Yrotation
        JOINT LeftLegRoll
        {
          OFFSET 0 22.9934 0
          CHANNELS 3 Zrotation Xrotation Yrotation
          JOINT LeftFoot
          {
            OFFSET 0 18.7522 0
            CHANNELS 3 Zrotation Xrotation Yrotation
            JOINT LeftToeBase
            {
              OFFSET 0 15.852 0
              CHANNELS 3 Zrotation Xrotation Yrotation
              End Site
              {
                OFFSET -0.030112 7.677 -0.884893
              }
            }
          }
        }
      }
    }
  }
}
MOTION
Frames: 4
Frame Time: 0.00208333
56.9969 94.0159 8.5872 0.168082 -4.88265 -0.856785 -0.0241249 -0.334839 0.207263 -0.0406258 3.32299 0.426275 -0.0458191 4.96804 0.42727 -12.6329 13.9752 1.43572 9.855 -13.5279 0.114601 74.673 -4.1048 -3.6527 95.102 12.3626 14.6157 -5.83675e-006 2.12754e-006 4.2402e-006 10.7767 10.7953 -1.96195 -1.05092e-006 1.09217e-006 -3 8.02896 -4.9514 0.69767 -69.9733 0.458833 1.10748 -101.035 -1.39877 -17.1152 1.40756e-006 5.92027e-007 -3.51376e-006 -4.74591 15.6152 1.81717 -3.77331e-006 2.44955e-006 3.00682 -8.02965 -4.95143 -0.697657 174.098 0.333043 1.19519 180 7.01582e-015 179.087 -179.758 12.384 179.052 1.61606e-006 -5.90502e-006 0.0383414 -16.4185 70.3451 21.4137 8.12881 25.2331 -3.48446 -178.599 2.4017 6.15942 4.54188e-006 -4.6773e-006 -1.37498 -4.43743 -14.3434 -0.236529 -1.14586e-006 -8.28892e-006 -0.258051 23.7911 72.1049 -23.8434 -8.13689 25.2385 3.48104 
56.9993 94.0162 8.59177 0.169157 -4.88547 -0.854585 -0.0241941 -0.3368 0.207261 -0.0414506 3.31979 0.426415 -0.0466429 4.96485 0.427431 -12.6239 14.0066 1.43608 9.84722 -13.5212 0.111898 74.6609 -4.10381 -3.65147 95.1282 12.384 14.4826 -5.83675e-006 2.12754e-006 4.2402e-006 10.8405 10.9114 -1.97815 -1.05092e-006 1.09217e-006 -3 8.02896 -4.9514 0.69767 -69.9755 0.459878 1.10722 -101.027 -1.326 -17.0129 1.40756e-006 5.92027e-007 -3.51376e-006 -4.79813 15.6858 1.8314 -3.77331e-006 2.44955e-006 3.00682 -8.02965 -4.95143 -0.697657 174.097 0.330106 1.19712 180 7.01582e-015 179.087 -179.76 12.3834 179.052 1.61606e-006 -5.90502e-006 0.0383414 -16.4185 70.3444 21.4131 8.12881 25.2331 -3.48446 -178.597 2.3993 6.15577 4.54188e-006 -4.6773e-006 -1.37498 -4.44134 -14.3421 -0.237399 -1.14586e-006 -8.28892e-006 -0.258051 23.7928 72.1054 -23.8435 -8.13689 25.2385 3.48104 
56.997 94.0155 8.58135 0.170226 -4.88825 -0.852585 -0.024257 -0.338771 0.20726 -0.0422595 3.3166 0.426561 -0.0474507 4.96165 0.427597 -12.6146 14.0374 1.43625 9.83844 -13.5136 0.108865 74.6492 -4.10276 -3.65024 95.1542 12.4054 14.349 -5.83675e-006 2.12754e-006 4.2402e-006 10.905 11.0271 -1.99429 -1.05092e-006 1.09217e-006 -3 8.02896 -4.9514 0.69767 -69.9775 0.460617 1.10708 -101.018 -1.25331 -16.91 1.40756e-006 5.92027e-007 -3.51376e-006 -4.85111 15.7549 1.84564 -3.77331e-006 2.44955e-006 3.00682 -8.02965 -4.95143 -0.697657 174.097 0.327191 1.1991 180 7.01582e-015 179.087 -179.763 12.3827 179.053 1.61606e-006 -5.90502e-006 0.0383414 -16.4184 70.3436 21.4124 8.12881 25.2331 -3.48446 -178.596 2.39684 6.15194 4.54188e-006 -4.6773e-006 -1.37498 -4.44545 -14.3406 -0.238308 -1.14586e-006 -8.28892e-006 -0.258051 23.7948 72.106 -23.8435 -8.13689 25.2385 3.48104 
56.9929 94.0163 8.58435 0.171291 -4.891 -0.850724 -0.0243153 -0.34075 0.207259 -0.0430573 3.31342 0.426711 -0.0482472 4.95847 0.427768 -12.605 14.0678 1.43629 9.82896 -13.5052 0.1056 74.6378 -4.10168 -3.64901 95.18 12.4269 14.2151 -5.83675e-006 2.12754e-006 4.2402e-006 10.9698 11.1426 -2.0104 -1.05092e-006 1.09217e-006 -3 8.02896 -4.9514 0.69767 -69.9795 0.461142 1.10704 -101.01 -1.18065 -16.8068 1.40756e-006 5.92027e-007 -3.51376e-006 -4.90462 15.8229 1.85989 -3.77331e-006 2.44955e-006 3.00682 -8.02965 -4.95143 -0.697657 174.096 0.324293 1.20112 180 7.01582e-015 179.087 -179.766 12.3819 179.054 1.61606e-006 -5.90502e-006 0.0383414 -16.4182 70.3427 21.4116 8.12881 25.2331 -3.48446 -178.594 2.39435 6.148 4.54188e-006 -4.6773e-006 -1.37498 -4.44969 -14.339 -0.239244 -1.14586e-006 -8.28892e-006 -0.258051 23.7968 72.1067 -23.8436 -8.13689 25.2385 3.48104 
